# This file uses centimeters as units for non-parametric coordinates.

mtllib key.mtl
g default
v -0.132795 5.233627 -1.283568
v -0.127526 5.228042 -1.270113
v -0.127628 5.233210 -1.265913
v -0.132795 5.234850 -1.270354
v 0.045979 5.233421 -1.270200
v 0.040600 5.233421 -1.265913
v 0.040600 5.228042 -1.270200
v -0.132795 5.302864 -1.270354
v -0.127523 5.304400 -1.265913
v -0.127636 5.309672 -1.270025
v -0.132795 5.304087 -1.283568
v 0.040600 5.309672 -1.270200
v 0.040600 5.304294 -1.265913
v 0.045979 5.304294 -1.270200
v -0.132795 5.304087 -1.393666
v -0.127526 5.309672 -1.407120
v -0.127628 5.304506 -1.411320
v -0.132795 5.302864 -1.406880
v 0.040600 5.304294 -1.411320
v 0.040600 5.309672 -1.407033
v 0.045979 5.304294 -1.407033
v -0.132795 5.234850 -1.406880
v -0.127523 5.233316 -1.411320
v -0.127636 5.228042 -1.407208
v -0.132795 5.233627 -1.393665
v 0.040600 5.228042 -1.407033
v 0.040600 5.233421 -1.411320
v 0.045979 5.233421 -1.407033
v -0.138002 5.254501 -1.373465
v -0.132795 5.251175 -1.378047
v -0.132795 5.244183 -1.375516
v -0.138293 5.249294 -1.369083
v -0.225468 5.253097 -1.303768
v -0.138293 5.249294 -1.308150
v -0.132795 5.244265 -1.301750
v -0.132795 5.251154 -1.299237
v -0.138002 5.254946 -1.303768
v -0.138002 5.282767 -1.303768
v -0.132795 5.286540 -1.299187
v -0.132795 5.293531 -1.301717
v -0.138293 5.288419 -1.308150
v -0.225466 5.284617 -1.303768
v -0.138293 5.288419 -1.369083
v -0.132795 5.293449 -1.375483
v -0.132795 5.286560 -1.377996
v -0.138002 5.283214 -1.373465
v -0.358667 5.254672 -1.373465
v -0.358667 5.249294 -1.369178
v -0.364046 5.254672 -1.369178
v -0.358473 5.256869 -1.303768
v -0.364046 5.254566 -1.307971
v -0.358886 5.249294 -1.307881
v -0.345750 5.254878 -1.303768
v -0.345751 5.282837 -1.303768
v -0.358777 5.288419 -1.307968
v -0.364046 5.283254 -1.307886
v -0.358473 5.280846 -1.303768
v -0.364046 5.283042 -1.369178
v -0.358667 5.288419 -1.369178
v -0.358667 5.283042 -1.373465
v -0.274014 5.260463 -1.299481
v -0.268832 5.255677 -1.303768
v -0.263211 5.263865 -1.303768
v -0.268635 5.265645 -1.299637
v -0.268635 5.272069 -1.299637
v -0.263440 5.273994 -1.303768
v -0.268828 5.281939 -1.303768
v -0.274014 5.277251 -1.299481
v -0.338388 5.277251 -1.299454
v -0.345604 5.282421 -1.303768
v -0.349429 5.275810 -1.303768
v -0.343801 5.272036 -1.299610
v -0.343801 5.265678 -1.299610
v -0.349448 5.261907 -1.303768
v -0.345631 5.255213 -1.303768
v -0.338388 5.260463 -1.299454
v -0.274014 5.260463 -1.267238
v -0.268635 5.265841 -1.267238
v -0.274014 5.265841 -1.262951
v -0.274014 5.271873 -1.262951
v -0.268635 5.271873 -1.267238
v -0.274014 5.277251 -1.267238
v -0.338422 5.271873 -1.262951
v -0.338422 5.277251 -1.267238
v -0.343801 5.271873 -1.267238
v -0.338422 5.265841 -1.262951
v -0.343801 5.265841 -1.267238
v -0.338422 5.260463 -1.267238
vt 0.025463 0.043572
vt 0.030603 0.012396
vt 0.099120 0.080537
vt 0.070168 0.086465
vt 0.001992 0.011828
vt 0.023710 0.001918
vt 0.316425 0.012396
vt 0.247825 0.080418
vt 0.025463 0.303310
vt 0.069825 0.260493
vt 0.001992 0.335260
vt 0.322881 0.001918
vt 0.321565 0.043570
vt 0.277203 0.086389
vt 0.115056 0.091227
vt 0.231972 0.091227
vt 0.091305 0.245316
vt 0.091305 0.101565
vt 0.030603 0.334487
vt 0.099206 0.266464
vt 0.024155 0.344963
vt 0.345036 0.011621
vt 0.321565 0.303312
vt 0.276860 0.260416
vt 0.113185 0.255655
vt 0.316425 0.334487
vt 0.247908 0.266345
vt 0.323326 0.344963
vt 0.345036 0.335054
vt 0.255723 0.101565
vt 0.255723 0.245316
vt 0.233849 0.255655
vt 0.375606 0.334848
vt 0.352998 0.334848
vt 0.352998 0.012033
vt 0.375606 0.012033
vt 0.375606 0.344963
vt 0.375606 0.001918
vt 0.673443 0.012033
vt 0.673443 0.334848
vt 0.673443 0.344963
vt 0.673443 0.001918
vt 0.696042 0.334848
vt 0.696042 0.012033
vt 0.500331 0.830693
vt 0.477731 0.830693
vt 0.477731 0.686083
vt 0.499886 0.686294
vt 0.500331 0.840808
vt 0.620443 0.686094
vt 0.619551 0.830693
vt 0.619551 0.840808
vt 0.509565 0.676379
vt 0.610322 0.676379
vt 0.642150 0.686288
vt 0.642150 0.830693
vt 0.838715 0.716103
vt 0.839083 0.737881
vt 0.762649 0.738702
vt 0.762649 0.716103
vt 0.848830 0.695989
vt 0.848830 0.730398
vt 0.839083 0.764875
vt 0.762649 0.764053
vt 0.752534 0.738702
vt 0.848830 0.772964
vt 0.838715 0.786652
vt 0.762649 0.786652
vt 0.752534 0.764053
vt 0.848830 0.806355
vt 0.659417 0.768990
vt 0.659048 0.747076
vt 0.735420 0.746390
vt 0.735420 0.768990
vt 0.649239 0.790718
vt 0.649239 0.762936
vt 0.659048 0.720354
vt 0.735420 0.721039
vt 0.745535 0.746390
vt 0.649239 0.704509
vt 0.659417 0.698440
vt 0.735420 0.698440
vt 0.745535 0.721039
vt 0.649239 0.676379
vt 0.557277 0.348955
vt 0.774575 0.349367
vt 0.774575 0.672182
vt 0.557418 0.672388
vt 0.333843 0.348955
vt 0.551141 0.349367
vt 0.551141 0.672181
vt 0.333985 0.672387
vt 0.173919 0.651635
vt 0.317670 0.651635
vt 0.318305 0.936558
vt 0.173695 0.936276
vt 0.326143 0.676379
vt 0.469893 0.676379
vt 0.470117 0.961020
vt 0.325713 0.961161
vt 0.998008 0.783172
vt 0.997945 0.866320
vt 0.921941 0.866364
vt 0.921941 0.783172
vt 0.839803 0.893494
vt 0.839739 0.810346
vt 0.915806 0.810346
vt 0.915806 0.893538
vt 0.703820 0.023636
vt 0.703951 0.001918
vt 0.921108 0.001918
vt 0.921108 0.024526
vt 0.921108 0.322363
vt 0.703956 0.322808
vt 0.703810 0.344962
vt 0.921108 0.344962
vt 0.780720 0.370664
vt 0.780852 0.348954
vt 0.998008 0.348954
vt 0.998008 0.371554
vt 0.998008 0.669390
vt 0.780857 0.669835
vt 0.780710 0.691998
vt 0.998008 0.691998
vt 0.144531 0.651635
vt 0.166411 0.652011
vt 0.166411 0.936652
vt 0.143811 0.936652
vt 0.023867 0.651635
vt 0.024592 0.936652
vt 0.001992 0.652011
vt 0.001992 0.936652
vt 0.157790 0.468653
vt 0.165561 0.355680
vt 0.203040 0.517403
vt 0.168631 0.524662
vt 0.141810 0.356055
vt 0.120673 0.348955
vt 0.149625 0.348955
vt 0.282477 0.355680
vt 0.245606 0.517699
vt 0.165273 0.624013
vt 0.166684 0.623859
vt 0.141810 0.640979
vt 0.290248 0.468650
vt 0.278996 0.524657
vt 0.188744 0.531356
vt 0.188744 0.614504
vt 0.173643 0.640445
vt 0.194814 0.628789
vt 0.163964 0.647644
vt 0.298330 0.348955
vt 0.327708 0.348955
vt 0.306229 0.356055
vt 0.282768 0.624013
vt 0.281022 0.623823
vt 0.274401 0.640445
vt 0.253240 0.628764
vt 0.306229 0.640838
vt 0.259294 0.531356
vt 0.259294 0.614504
vt 0.284521 0.647644
vt 0.855828 0.695989
vt 0.878428 0.695989
vt 0.878428 0.779181
vt 0.855828 0.779181
vt 0.903778 0.695989
vt 0.903778 0.779181
vt 0.926378 0.695989
vt 0.926378 0.779181
vn -1.000000 0.000000 0.000000
vn -1.000000 0.000000 0.000000
vn -1.000000 0.000000 0.000000
vn -1.000000 0.000000 0.000000
vn -0.740113 -0.671749 0.031417
vn -0.732664 -0.680565 0.005890
vn -0.732859 -0.680359 -0.005447
vn -0.741216 -0.670499 -0.032093
vn 0.000597 -0.626936 0.779070
vn 0.000597 -0.626936 0.779070
vn 0.000597 -0.626936 0.779070
vn 0.000597 -0.626936 0.779070
vn -0.647975 0.000492 0.761662
vn -0.647975 0.000492 0.761662
vn -0.647975 0.000492 0.761662
vn -0.647975 0.000492 0.761662
vn 0.707174 -0.707040 0.000000
vn 0.707174 -0.707040 0.000000
vn 0.707174 -0.707040 0.000000
vn 0.707174 -0.707040 0.000000
vn 0.623348 0.000000 0.781944
vn 0.623348 0.000000 0.781944
vn 0.623348 0.000000 0.781944
vn 0.623348 0.000000 0.781944
vn -1.000000 0.000000 0.000000
vn -1.000000 0.000000 0.000000
vn -1.000000 0.000000 0.000000
vn -1.000000 0.000000 0.000000
vn 0.000603 0.619320 0.785138
vn 0.000603 0.619320 0.785138
vn 0.000603 0.619320 0.785138
vn 0.000603 0.619320 0.785138
vn -0.732858 0.680359 0.005445
vn -0.741216 0.670499 0.032085
vn -0.740112 0.671750 -0.031409
vn -0.732664 0.680565 -0.005888
vn 0.707051 0.707162 0.000000
vn 0.707051 0.707162 0.000000
vn 0.707051 0.707162 0.000000
vn 0.707051 0.707162 0.000000
vn -1.000000 0.000000 0.000000
vn -1.000000 0.000000 0.000000
vn -1.000000 0.000000 0.000000
vn -1.000000 0.000000 0.000000
vn 0.000597 0.627052 -0.778977
vn 0.000597 0.627052 -0.778977
vn 0.000597 0.627052 -0.778977
vn 0.000597 0.627052 -0.778977
vn -0.647951 -0.000492 -0.761681
vn -0.647951 -0.000492 -0.761682
vn -0.647951 -0.000492 -0.761682
vn -0.647951 -0.000492 -0.761682
vn 0.623324 0.000000 -0.781964
vn 0.623324 0.000000 -0.781964
vn 0.623324 0.000000 -0.781964
vn 0.623324 0.000000 -0.781964
vn -1.000000 0.000000 0.000000
vn -1.000000 0.000000 0.000000
vn -1.000000 0.000000 0.000000
vn -1.000000 0.000000 0.000000
vn 0.000603 -0.619174 -0.785254
vn 0.000603 -0.619174 -0.785254
vn 0.000603 -0.619174 -0.785254
vn 0.000603 -0.619174 -0.785254
vn -0.000079 -0.633674 -0.773600
vn -0.000079 -0.633674 -0.773600
vn -0.000079 -0.633674 -0.773600
vn -0.000079 -0.633674 -0.773600
vn -0.730423 -0.133569 -0.669807
vn -0.678512 -0.033179 -0.733840
vn -0.677900 0.033919 -0.734371
vn -0.729356 0.135350 -0.670612
vn -0.677970 -0.735089 0.000445
vn -0.677970 -0.735089 0.000445
vn -0.677970 -0.735089 0.000445
vn -0.677970 -0.735089 0.000445
vn 0.000000 0.000000 1.000000
vn 0.000000 0.000000 1.000000
vn 0.000000 0.000000 1.000000
vn 0.000000 0.000000 1.000000
vn -0.102810 -0.612669 0.783624
vn -0.006117 -0.681901 0.731418
vn -0.012187 -0.674693 0.737998
vn -0.016072 -0.670733 0.741524
vn -0.658543 -0.000599 0.752543
vn -0.658543 -0.000599 0.752543
vn -0.658543 -0.000599 0.752543
vn -0.658543 -0.000599 0.752543
vn 0.000000 0.000000 1.000000
vn 0.000000 0.000000 1.000000
vn 0.000000 0.000000 1.000000
vn 0.000000 0.000000 1.000000
vn -0.677970 0.735089 -0.000445
vn -0.677970 0.735090 -0.000445
vn -0.677970 0.735089 -0.000445
vn -0.677970 0.735090 -0.000445
vn -0.006355 0.686381 0.727214
vn -0.104148 0.613503 0.782794
vn -0.015676 0.675684 0.737024
vn -0.012041 0.679459 0.733614
vn -0.000081 0.633718 -0.773564
vn -0.000081 0.633718 -0.773564
vn -0.000081 0.633718 -0.773564
vn -0.000081 0.633718 -0.773564
vn -0.623325 0.000000 -0.781963
vn -0.623325 0.000000 -0.781963
vn -0.623325 0.000000 -0.781963
vn -0.623325 0.000000 -0.781963
vn -0.710800 -0.703392 -0.001877
vn -0.710800 -0.703392 -0.001877
vn -0.710800 -0.703392 -0.001877
vn -0.710800 -0.703392 -0.001877
vn 0.000000 0.000000 1.000000
vn 0.000000 0.000000 1.000000
vn 0.000000 0.000000 1.000000
vn 0.000000 0.000000 1.000000
vn -0.598209 -0.001291 0.801339
vn -0.598209 -0.001291 0.801339
vn -0.598209 -0.001291 0.801339
vn -0.598209 -0.001291 0.801339
vn 0.000000 0.000000 1.000000
vn 0.000000 0.000000 1.000000
vn 0.000000 0.000000 1.000000
vn 0.000000 0.000000 1.000000
vn -0.703614 0.710580 -0.001860
vn -0.703614 0.710580 -0.001860
vn -0.703614 0.710580 -0.001860
vn -0.703614 0.710580 -0.001860
vn 0.700549 -0.713601 0.002159
vn 0.700549 -0.713601 0.002159
vn 0.700549 -0.713601 0.002159
vn 0.700549 -0.713601 0.002159
vn 0.002282 -0.651046 0.759035
vn 0.002282 -0.651046 0.759035
vn 0.002282 -0.651046 0.759035
vn 0.002282 -0.651046 0.759035
vn 0.554831 -0.138190 0.820406
vn 0.500549 -0.246630 0.829834
vn 0.501590 0.255175 0.826616
vn 0.558976 0.142081 0.816920
vn 0.700549 0.713601 0.002159
vn 0.700549 0.713601 0.002159
vn 0.700549 0.713601 0.002159
vn 0.700549 0.713601 0.002159
vn 0.002390 0.657703 0.753273
vn 0.002390 0.657703 0.753273
vn 0.002390 0.657703 0.753273
vn 0.002390 0.657703 0.753273
vn -0.700518 0.713633 0.001436
vn -0.700518 0.713633 0.001436
vn -0.700518 0.713633 0.001436
vn -0.700518 0.713633 0.001436
vn -0.547255 0.072739 0.833799
vn -0.434394 0.223554 0.872540
vn -0.433680 -0.221584 0.873397
vn -0.546724 -0.071757 0.834232
vn -0.700520 -0.713631 0.001436
vn -0.700520 -0.713631 0.001436
vn -0.700520 -0.713631 0.001436
vn -0.700520 -0.713631 0.001436
vn 0.000000 -0.623383 0.781916
vn 0.000000 -0.623383 0.781916
vn 0.000000 -0.623383 0.781916
vn 0.000000 -0.623383 0.781916
vn 0.623325 0.000000 0.781963
vn 0.623325 0.000000 0.781963
vn 0.623325 0.000000 0.781963
vn 0.623325 0.000000 0.781963
vn 0.000000 0.623383 0.781916
vn 0.000000 0.623383 0.781916
vn 0.000000 0.623383 0.781916
vn 0.000000 0.623383 0.781916
vn -0.623322 0.000000 0.781965
vn -0.623322 0.000000 0.781965
vn -0.623322 0.000000 0.781965
vn -0.623322 0.000000 0.781965
vn 0.000000 0.000000 1.000000
vn 0.000000 0.000000 1.000000
vn 0.000000 0.000000 1.000000
vn 0.000000 0.000000 1.000000
vn 0.000000 1.000000 -0.000000
vn 0.000000 1.000000 -0.000000
vn 0.000000 1.000000 -0.000000
vn 0.000000 1.000000 -0.000000
vn 0.000000 0.000000 -1.000000
vn 0.000000 0.000000 -1.000000
vn 0.000000 0.000000 -1.000000
vn 0.000000 0.000000 -1.000000
vn 0.000000 -1.000000 -0.000000
vn 0.000000 -1.000000 -0.000000
vn 0.000000 -1.000000 -0.000000
vn 0.000000 -1.000000 -0.000000
vn 1.000000 0.000000 0.000000
vn 1.000000 0.000000 0.000000
vn 1.000000 0.000000 0.000000
vn 1.000000 0.000000 0.000000
vn -1.000000 0.000000 0.000000
vn -1.000000 0.000000 0.000000
vn -1.000000 0.000000 0.000000
vn -1.000000 0.000000 0.000000
vn 0.000000 -1.000000 0.000000
vn 0.000000 -1.000000 0.000000
vn 0.000000 -1.000000 0.000000
vn 0.000000 -1.000000 0.000000
vn 0.000000 0.000000 1.000000
vn 0.000000 0.000000 1.000000
vn 0.000000 0.000000 1.000000
vn 0.000000 0.000000 1.000000
vn 0.000000 1.000000 0.000000
vn 0.000000 1.000000 0.000000
vn 0.000000 1.000000 0.000000
vn 0.000000 1.000000 0.000000
vn -0.000000 0.000000 -1.000000
vn -0.000000 0.000000 -1.000000
vn -0.000000 0.000000 -1.000000
vn -0.000000 0.000000 -1.000000
vn 1.000000 0.000000 0.000000
vn 1.000000 0.000000 0.000000
vn 1.000000 0.000000 0.000000
vn 1.000000 0.000000 0.000000
vn 0.000000 1.000000 0.000000
vn 0.000000 1.000000 0.000000
vn 0.000000 1.000000 0.000000
vn 0.000000 1.000000 0.000000
vn -1.000000 0.000000 0.000000
vn -1.000000 0.000000 0.000000
vn -1.000000 0.000000 0.000000
vn -1.000000 0.000000 0.000000
vn 0.000000 -1.000000 0.000000
vn 0.000000 -1.000000 0.000000
vn 0.000000 -1.000000 0.000000
vn 0.000000 -1.000000 0.000000
vn -0.776290 -0.593238 0.213174
vn -0.776290 -0.593238 0.213174
vn 0.529019 -0.528917 0.663615
vn 0.529019 -0.528917 0.663615
vn 0.529019 -0.528917 0.663615
vn -0.782040 0.581873 0.223242
vn -0.782040 0.581873 0.223242
vn 0.528967 0.529050 0.663552
vn 0.528967 0.529050 0.663551
vn 0.528967 0.529050 0.663551
vn -0.776295 0.593249 -0.213123
vn -0.776295 0.593249 -0.213123
vn 0.528952 0.529035 -0.663575
vn 0.528952 0.529035 -0.663575
vn 0.528952 0.529035 -0.663575
vn -0.782028 -0.581870 -0.223295
vn -0.782028 -0.581870 -0.223295
vn 0.529004 -0.528903 -0.663639
vn 0.529004 -0.528903 -0.663639
vn 0.529004 -0.528903 -0.663639
vn -0.787722 -0.289415 -0.543814
vn -0.787722 -0.289415 -0.543814
vn -0.128548 -0.592265 0.795423
vn -0.128548 -0.592265 0.795423
vn -0.128548 -0.592265 0.795423
vn -0.130366 0.591824 0.795455
vn -0.130366 0.591824 0.795455
vn -0.130366 0.591824 0.795455
vn -0.785592 0.292089 -0.545462
vn -0.785592 0.292089 -0.545462
vn -0.528954 -0.529033 -0.663575
vn -0.528954 -0.529033 -0.663575
vn -0.528954 -0.529033 -0.663575
vn -0.191308 -0.460287 0.866913
vn -0.191308 -0.460287 0.866913
vn -0.183449 0.471119 0.862782
vn -0.183449 0.471119 0.862782
vn -0.528954 0.529033 -0.663575
vn -0.528954 0.529033 -0.663575
vn -0.528954 0.529033 -0.663575
vn 0.438879 -0.351394 0.826987
vn 0.438879 -0.351394 0.826987
vn 0.442969 0.353491 0.823907
vn 0.442969 0.353491 0.823907
vn -0.380904 0.285905 0.879301
vn -0.380904 0.285905 0.879301
vn -0.380414 -0.283250 0.880372
vn -0.380414 -0.283250 0.880372
vn 0.528953 -0.529035 0.663574
vn 0.528954 -0.529035 0.663574
vn 0.528954 -0.529035 0.663574
vn 0.528954 0.529035 0.663574
vn 0.528954 0.529035 0.663574
vn 0.528954 0.529035 0.663574
vn -0.528953 0.529031 0.663577
vn -0.528953 0.529031 0.663577
vn -0.528953 0.529031 0.663577
vn -0.528953 -0.529031 0.663577
vn -0.528953 -0.529031 0.663577
vn -0.528953 -0.529031 0.663577
s 1
g pCube12
usemtl initialShadingGroup
f 1/1/1 4/2/2 36/3/3 35/4/4
s 2
f 2/5/5 1/1/6 25/9/7 24/11/8
s off
f 3/109/9 2/110/10 7/111/11 6/112/12
f 4/2/13 3/6/14 9/12/15 8/7/16
f 5/33/17 7/34/18 26/35/19 28/36/20
f 6/37/21 5/33/22 14/40/23 13/41/24
s 1
f 8/7/25 11/13/26 40/14/27 39/8/28
s off
f 10/115/29 9/114/30 13/113/31 12/116/32
s 4
f 11/13/33 10/22/34 16/29/35 15/23/36
s off
f 12/43/37 14/40/38 21/39/39 20/44/40
s 1
f 15/23/41 18/26/42 45/27/43 44/24/44
s off
f 17/117/45 16/118/46 20/119/47 19/120/48
f 18/26/49 17/28/50 23/21/51 22/19/52
f 19/42/53 21/39/54 28/36/55 27/38/56
s 1
f 22/19/57 25/9/58 31/10/59 30/20/60
s off
f 24/123/61 23/122/62 27/121/63 26/124/64
f 29/125/65 32/126/66 48/127/67 47/128/68
s 6
f 30/20/69 29/25/70 46/32/71 45/27/72
s off
f 32/17/73 31/10/74 35/4/75 34/18/76
s 7
f 33/133/77 37/134/78 63/135/79 62/136/80
s 8
f 34/137/81 33/133/82 53/142/83 52/144/84
s off
f 37/15/85 36/3/86 39/8/87 38/16/88
s 7
f 38/140/89 42/145/90 67/146/91 66/141/92
s off
f 41/30/93 40/14/94 44/24/95 43/31/96
s 10
f 42/145/97 41/154/98 55/159/99 54/155/100
s off
f 43/131/101 46/129/102 60/130/103 59/132/104
f 47/49/105 49/45/106 58/51/107 60/52/108
f 49/45/109 48/46/110 52/47/111 51/48/112
s 7
f 50/149/113 53/142/114 75/143/115 74/150/116
s off
f 51/48/117 50/53/118 57/54/119 56/50/120
s 7
f 54/155/121 57/157/122 71/158/123 70/156/124
s off
f 56/50/125 55/55/126 59/56/127 58/51/128
f 61/57/129 64/58/130 78/59/131 77/60/132
f 62/136/133 61/147/134 76/148/135 75/143/136
s 11
f 64/58/137 63/62/138 66/66/139 65/63/140
s off
f 65/63/141 68/67/142 82/68/143 81/64/144
f 68/160/145 67/146/146 70/156/147 69/161/148
f 69/71/149 72/72/150 85/73/151 84/74/152
s 12
f 72/72/153 71/76/154 74/80/155 73/77/156
s off
f 73/77/157 76/81/158 88/82/159 87/78/160
f 77/163/161 79/164/162 86/165/163 88/166/164
f 79/65/165 78/59/166 81/64/167 80/69/168
f 80/167/169 82/169/170 84/170/171 83/168/172
f 83/79/173 85/73/174 87/78/175 86/83/176
f 3/109/177 6/112/178 13/113/179 9/114/180
f 10/85/181 12/86/182 20/87/183 16/88/184
f 17/117/185 19/120/186 27/121/187 23/122/188
f 24/89/189 26/90/190 7/91/191 2/92/192
f 5/33/193 28/36/194 21/39/195 14/40/196
f 49/45/197 51/48/198 56/50/199 58/51/200
s 1
f 25/9/58 1/1/1 35/4/4 31/10/59
f 4/2/2 8/7/25 39/8/28 36/3/3
f 11/13/26 15/23/41 44/24/44 40/14/27
f 18/26/42 22/19/57 30/20/60 45/27/43
s off
f 32/93/201 34/94/202 52/95/203 48/96/204
f 79/164/205 80/167/206 83/168/207 86/165/208
f 41/97/209 43/98/210 59/99/211 55/100/212
f 46/129/213 29/125/214 47/128/215 60/130/216
s 7
f 37/134/78 38/140/89 66/141/92 63/135/79
f 42/145/90 54/155/121 70/156/124 67/146/91
f 57/157/122 50/149/113 74/150/116 71/158/123
f 53/142/114 33/133/77 62/136/80 75/143/115
s off
f 64/58/217 65/63/218 81/64/219 78/59/220
f 68/101/221 69/102/222 84/103/223 82/104/224
f 72/72/225 73/77/226 87/78/227 85/73/228
f 76/105/229 61/106/230 77/107/231 88/108/232
s 2
f 1/1/6 2/5/5 3/6/233 4/2/234
s off
f 5/33/235 6/37/236 7/34/237
s 4
f 8/7/238 9/12/239 10/22/34 11/13/33
s off
f 12/43/240 13/41/241 14/40/242
s 4
f 15/23/36 16/29/35 17/28/243 18/26/244
s off
f 19/42/245 20/44/246 21/39/247
s 2
f 22/19/248 23/21/249 24/11/8 25/9/7
s off
f 26/35/250 27/38/251 28/36/252
s 6
f 29/25/70 30/20/69 31/10/253 32/17/254
s 8
f 33/133/82 34/137/81 35/138/255 36/139/256 37/134/257
s 10
f 38/140/258 39/152/259 40/153/260 41/154/98 42/145/97
s 6
f 43/31/261 44/24/262 45/27/72 46/32/71
s off
f 47/49/263 48/46/264 49/45/265
s 8
f 50/149/266 51/151/267 52/144/84 53/142/83
s 10
f 54/155/100 55/159/99 56/162/268 57/157/269
s off
f 58/51/270 59/56/271 60/52/272
s 11
f 61/57/273 62/61/274 63/62/138 64/58/137
f 65/63/140 66/66/139 67/70/275 68/67/276
s 12
f 69/71/277 70/75/278 71/76/154 72/72/153
f 73/77/156 74/80/155 75/84/279 76/81/280
s off
f 77/60/281 78/59/282 79/65/283
f 80/69/284 81/64/285 82/68/286
f 83/79/287 84/74/288 85/73/289
f 86/83/290 87/78/291 88/82/292
